<?xml version="1.0" encoding="utf-8"?>
<!-- Generator: Adobe Illustrator 27.5.0, SVG Export Plug-In . SVG Version: 6.00 Build 0)  -->
<svg version="1.1" xmlns="http://www.w3.org/2000/svg" xmlns:xlink="http://www.w3.org/1999/xlink" x="0px" y="0px"
	 viewBox="0 0 500 500" style="enable-background:new 0 0 500 500;" xml:space="preserve">
<g id="Floor">
	<ellipse id="Floor_11_" style="fill:#FAFAFA;" cx="250" cy="359.001" rx="238.907" ry="128.695"/>
</g>
<g id="Shadows">
	<path id="Shadow_18_" style="fill:#E0E0E0;" d="M445.251,380.461c10.635,5.991,10.742,15.887,0.238,22.105
		c-10.503,6.217-27.642,6.402-38.282,0.413c-10.64-5.989-10.746-15.886-0.239-22.105
		C417.476,374.656,434.616,374.471,445.251,380.461z"/>
	<path id="Shadow_34_" style="fill:#E0E0E0;" d="M76.581,354.492c10.635,5.991,10.742,15.887,0.239,22.105
		c-10.503,6.217-27.642,6.402-38.282,0.413c-10.64-5.989-10.746-15.886-0.239-22.105C48.806,348.687,65.946,348.502,76.581,354.492z
		"/>
	<path id="Shadow_10_" style="fill:#E0E0E0;" d="M126.481,430.31l112.893-65.18c1.234-0.712,1.234-1.867,0-2.58l-8.108-4.681
		c-1.234-0.712-3.234-0.712-4.468,0l-45.83,26.46c-1.234,0.712-3.234,0.712-4.468,0l-83.552-48.239
		c-1.234-0.712-3.234-0.712-4.468,0l-3.917,2.261c-1.234,0.712-1.234,1.867,0,2.579l83.642,48.289
		c1.234,0.712,1.233,1.866-0.002,2.577l-54.298,31.256c-1.235,0.711-1.235,1.864-0.002,2.577l8.108,4.681
		C123.247,431.023,125.247,431.023,126.481,430.31z"/>
	<path id="Shadow_35_" style="fill:#E0E0E0;" d="M255.941,362.804c7.814,4.326,7.814,11.341,0,15.668
		c-7.814,4.326-20.483,4.326-28.297,0c-7.814-4.326-7.814-11.341,0-15.668C235.458,358.477,248.127,358.477,255.941,362.804z"/>
	<ellipse id="Shadow_16_" style="fill:#E0E0E0;" cx="319.24" cy="415.767" rx="67.714" ry="37.492"/>
</g>
<g id="Plants">
	<g id="Plants_5_">
		<g id="XMLID_9258_">
			<g id="XMLID_9261_">
				<path id="XMLID_9262_" style="fill:#27DEBF;" d="M135.031,417.489l7.964-4.551c0,0,3.82-21.052,0.963-39.148
					c-4.017-25.443-21.34-34.219-27.632-31.69c-6.291,2.529-7.771,10.066,3.592,24.767
					C126.623,375.541,135.246,393.876,135.031,417.489z"/>
			</g>
			<g id="XMLID_9263_" style="opacity:0.15;">
				<path id="XMLID_9264_" d="M135.031,417.489l7.964-4.551c0,0,3.82-21.052,0.963-39.148c-4.017-25.443-21.34-34.219-27.632-31.69
					c-6.291,2.529-7.771,10.066,3.592,24.767C126.623,375.541,135.246,393.876,135.031,417.489z"/>
			</g>
			<g id="XMLID_9259_">
				<path id="XMLID_9260_" style="fill:#FFFFFF;" d="M137.918,407.384c-0.027,0-0.052-0.002-0.079-0.006
					c-0.31-0.043-0.528-0.329-0.485-0.64c3.292-23.82-6.287-49.917-17.05-60.435c-0.224-0.218-0.228-0.579-0.009-0.803
					c0.22-0.222,0.579-0.228,0.803-0.009c10.959,10.709,20.721,37.231,17.381,61.402
					C138.44,407.178,138.196,407.384,137.918,407.384z"/>
			</g>
		</g>
		<g id="XMLID_9219_">
			<g id="XMLID_9228_">
				<path id="XMLID_9257_" style="fill:#27DEBF;" d="M112.933,430.255c-1.258,0.723-3.852-0.857-4.846-1.524
					c-1.701-1.141-3.079-2.757-3.994-4.585c-1.065-2.127-1.334-4.406-1-6.76c0.173-1.22,0.515-2.41,0.855-3.594
					c0.334-1.163,0.669-2.326,1.003-3.489c0.33-1.148,0.663-2.335,0.511-3.519c-0.305-2.386-2.423-4.058-4.349-5.5
					c-2.129-1.595-4.347-3.699-4.335-6.572c0.009-2.216,1.157-4.275,2.531-6.015c1.374-1.74,3.004-3.276,4.245-5.113
					c0.894-1.322,1.591-2.875,1.446-4.464c-0.09-0.987-0.5-1.917-0.972-2.789c-1.014-1.87-2.353-3.584-3.052-5.593
					s-0.6-4.509,0.968-5.947c1.287-1.18,3.2-1.345,4.943-1.23c1.612,0.107,3.187,0.834,4.597,1.618
					c4.561,2.536,7.163,7.937,12.003,9.889c1.867,0.753,3.912,0.917,5.858,1.432c1.946,0.514,3.93,1.508,4.831,3.308
					c1.776,3.548-1.52,7.921-0.271,11.688c1.105,3.333,4.344,4.609,6.163,7.613c0.796,1.314,0.979,2.833,0.851,4.363
					c-0.217,2.591-0.597,4.492-1.84,7.374c-1.027,2.381-4.047,6.642-4.047,6.642C134.955,417.564,113.125,430.144,112.933,430.255z"
					/>
			</g>
			<g id="XMLID_9226_">
				<path id="XMLID_9227_" style="fill:#FFFFFF;" d="M125.862,423.366c-0.008,0-0.015,0-0.015,0
					c-0.322-0.013-0.565-0.278-0.552-0.591c0.938-22.546-9.685-47.436-17.41-54.667c-0.228-0.214-0.241-0.573-0.027-0.803
					c0.215-0.228,0.573-0.24,0.803-0.027c7.88,7.377,18.719,32.681,17.769,55.544C126.417,423.128,126.165,423.366,125.862,423.366z
					"/>
			</g>
			<g id="XMLID_9224_">
				<path id="XMLID_9225_" style="fill:#FFFFFF;" d="M122.484,396.73c-0.055,0-0.112-0.008-0.168-0.025
					c-7.243-2.239-16.271-2.634-16.361-2.638c-0.314-0.013-0.557-0.278-0.545-0.591c0.013-0.313,0.251-0.56,0.591-0.545
					c0.092,0.004,9.263,0.405,16.65,2.688c0.299,0.092,0.468,0.41,0.375,0.71C122.951,396.574,122.727,396.73,122.484,396.73z"/>
			</g>
		</g>
	</g>
	<g id="Plants_1_">
		<g id="XMLID_5280_">
			<g id="XMLID_5521_">
				<path id="XMLID_5522_" style="fill:#27DEBF;" d="M426.581,294.276l-8.289-4.789c0,0-4.933-20.497-2.967-38.941
					c2.764-25.931,19.833-35.688,26.324-33.452c6.491,2.236,8.37,9.782-2.369,25.226
					C432.944,251.431,425.16,270.411,426.581,294.276z"/>
			</g>
			<g id="XMLID_5519_" style="opacity:0.15;">
				<path id="XMLID_5520_" d="M426.581,294.276l-8.289-4.789c0,0-4.933-20.497-2.967-38.941
					c2.764-25.931,19.833-35.688,26.324-33.452c6.491,2.236,8.37,9.782-2.369,25.226
					C432.944,251.431,425.16,270.411,426.581,294.276z"/>
			</g>
			<g id="XMLID_5517_">
				<path id="XMLID_5518_" style="fill:#FFFFFF;" d="M423.147,284.206c0.027-0.001,0.052-0.005,0.079-0.01
					c0.312-0.06,0.517-0.36,0.458-0.672c-4.543-23.918,3.812-50.794,14.158-61.978c0.215-0.232,0.201-0.597-0.032-0.812
					c-0.233-0.213-0.597-0.201-0.813,0.032c-10.535,11.388-19.053,38.703-14.443,62.972
					C422.608,284.024,422.865,284.22,423.147,284.206z"/>
			</g>
		</g>
		<g id="XMLID_4700_">
			<g id="XMLID_4709_">
				<path id="XMLID_4710_" style="fill:#27DEBF;" d="M448.294,306.815c1.309,0.667,4.791-2.314,5.762-3.039
					c1.662-1.241,2.973-2.945,3.805-4.84c0.969-2.205,1.124-4.524,0.667-6.886c-0.237-1.225-0.643-2.41-1.048-3.591
					c-0.397-1.159-0.795-2.318-1.192-3.477c-0.392-1.144-0.79-2.327-0.697-3.532c0.187-2.428,2.243-4.227,4.117-5.783
					c2.072-1.721,4.207-3.962,4.048-6.866c-0.122-2.241-1.388-4.264-2.866-5.953c-1.478-1.689-3.204-3.16-4.553-4.953
					c-0.971-1.291-1.755-2.826-1.689-4.44c0.041-1.003,0.407-1.964,0.841-2.869c0.931-1.943,2.196-3.744,2.801-5.811
					c0.605-2.067,0.377-4.59-1.283-5.964c-1.362-1.128-3.304-1.197-5.061-0.991c-1.625,0.19-3.18,1.006-4.566,1.871
					c-4.482,2.797-6.839,8.391-11.633,10.611c-1.849,0.856-3.909,1.127-5.85,1.746c-1.941,0.619-3.897,1.725-4.716,3.591
					c-1.616,3.678,1.941,7.932,0.87,11.804c-0.947,3.427-4.157,4.882-5.843,8.012c-0.737,1.369-0.845,2.914-0.638,4.456
					c0.352,2.609,0.832,4.512,2.236,7.362c1.16,2.355,4.428,6.807,4.428,6.807S448.093,306.712,448.294,306.815z"/>
			</g>
			<g id="XMLID_4705_">
				<path id="XMLID_4708_" style="fill:#FFFFFF;" d="M435.607,300.202c0.008,0,0.016-0.001,0.016-0.001
					c0.324-0.03,0.557-0.31,0.528-0.626c-2.099-22.749,7.374-48.458,14.816-56.164c0.22-0.228,0.214-0.592-0.014-0.813
					c-0.229-0.22-0.592-0.213-0.813,0.014c-7.592,7.861-17.261,33.999-15.134,57.069
					C435.034,299.989,435.301,300.218,435.607,300.202z"/>
			</g>
			<g id="XMLID_4702_">
				<path id="XMLID_4704_" style="fill:#FFFFFF;" d="M437.866,272.152c0.056-0.003,0.113-0.014,0.168-0.034
					c7.21-2.634,16.319-3.493,16.409-3.501c0.317-0.03,0.549-0.31,0.521-0.626c-0.029-0.315-0.282-0.553-0.626-0.52
					c-0.093,0.009-9.346,0.882-16.698,3.568c-0.298,0.108-0.452,0.439-0.343,0.737C437.386,272.018,437.621,272.165,437.866,272.152
					z"/>
			</g>
		</g>
	</g>
</g>
<g id="Canvas_1_">
	<g id="Canvas">
		<g id="XMLID_9628_">
			<polygon id="XMLID_9639_" style="fill:#37474F;" points="201.57,344.157 201.57,341.212 149.221,371.495 151.718,372.967 			"/>
			<g id="XMLID_9636_">
				<path id="XMLID_9638_" style="fill:#37474F;" d="M136.297,144.822c0.265,0.153,0.4,0.461,0.332,0.759L93.258,338.126
					l-1.24,5.462c-0.626,0.037-1.252-0.086-1.73-0.344c-0.012-0.012-0.024-0.012-0.037-0.025l-2.906-1.682
					c-0.265-0.153-0.399-0.461-0.332-0.759l44.525-197.657c0.104-0.46,0.623-0.688,1.031-0.452L136.297,144.822z"/>
				<path id="XMLID_9637_" style="fill:#455A64;" d="M141.738,142.195L96.991,340.783c-0.072,0.317-0.272,0.59-0.553,0.752
					l-2.91,1.684c-0.417,0.246-0.957,0.368-1.509,0.368l1.24-5.462l43.484-193.046L141.738,142.195z"/>
			</g>
			<g id="XMLID_9633_">
				<path id="XMLID_9635_" style="fill:#37474F;" d="M146.733,409.826v5.744c-0.589,0-1.166-0.123-1.608-0.368
					c-0.012-0.012-0.025-0.012-0.037-0.025l-2.7-1.559c-0.442-0.258-0.65-0.602-0.65-0.933l-0.012-172.439l4.995,2.884
					L146.733,409.826z"/>
				<path id="XMLID_9634_" style="fill:#455A64;" d="M151.728,240.259l-0.012,172.366v0.123c-0.012,0.319-0.246,0.626-0.663,0.871
					l-2.688,1.559c-0.442,0.27-1.043,0.393-1.632,0.393v-5.744l-0.012-166.695L151.728,240.259z"/>
			</g>
			<g id="XMLID_9630_">
				<path id="XMLID_9632_" style="fill:#37474F;" d="M211.45,378.21c-0.344,0-0.96-0.113-1.554-0.452l-2.779-1.607
					c-0.357-0.206-0.607-0.557-0.684-0.962l-29.741-155.131l4.995,2.884l28.695,149.685L211.45,378.21z"/>
				<path id="XMLID_9631_" style="fill:#455A64;" d="M216.433,375.302c0,0.012,0,0.012,0,0.024c0,0.344-0.233,0.675-0.688,0.945
					l-2.541,1.473l-0.122,0.074c-0.454,0.258-1.043,0.393-1.632,0.393l-1.068-5.584l-28.695-149.685l5.008-2.872l29.689,155.011
					c0,0.012,0.012,0.025,0.012,0.037L216.433,375.302z"/>
			</g>
			<polygon id="XMLID_9629_" style="fill:#455A64;" points="150.002,379.694 206.556,347.042 206.556,341.286 150.002,373.937 			
				"/>
		</g>
		<g id="XMLID_9581_">
			<g id="XMLID_9624_">
				<path id="XMLID_9627_" style="fill:#27DEBF;" d="M103.871,275.819v2.075c0,1.017,0.714,2.253,1.594,2.762l16.753,9.673
					c0.881,0.508,2.308,0.508,3.189,0l76.449-44.129c0.881-0.508,1.595-1.745,1.595-2.762v-2.075c0-1.017-0.714-2.253-1.595-2.761
					l-16.753-9.673c-0.881-0.508-2.308-0.508-3.189,0l-76.449,44.129C104.584,273.565,103.871,274.802,103.871,275.819z"/>
				<path id="XMLID_9626_" style="opacity:0.4;fill:#FFFFFF;" d="M105.465,274.898l16.753,9.672c0.881,0.508,2.308,0.508,3.189,0
					l76.449-44.129c0.881-0.508,0.881-1.333,0-1.841l-16.753-9.673c-0.881-0.508-2.308-0.508-3.189,0l-76.449,44.129
					C104.584,273.565,104.584,274.389,105.465,274.898z"/>
				<path id="XMLID_9625_" style="opacity:0.1;" d="M123.807,284.955v5.756c-0.577,0-1.154-0.135-1.583-0.38l-16.753-9.671
					c-0.884-0.515-1.596-1.755-1.596-2.761v-2.074c0-0.896,0.54-1.951,1.276-2.541c-0.552,0.503-0.442,1.178,0.319,1.62
					l16.753,9.671C122.653,284.82,123.242,284.955,123.807,284.955z"/>
			</g>
			<g id="XMLID_9620_">
				<path id="XMLID_9623_" style="fill:#E0E0E0;" d="M99.4,290.74l-4.657-2.689c-1.468-0.847-2.736-2.905-2.834-4.597L82.294,116.88
					c-0.098-1.692,1.013-3.75,2.48-4.597l109.297-63.016c1.467-0.847,3.847-0.848,5.315,0l4.66,2.689
					c1.468,0.847,2.737,2.905,2.834,4.597l9.615,166.574c0.098,1.692-1.013,3.75-2.48,4.598L104.714,290.74
					C103.247,291.587,100.867,291.587,99.4,290.74z"/>
				<path id="XMLID_9622_" style="fill:#FAFAFA;" d="M206.814,56.095c-0.282-1.35-1.436-1.829-2.774-1.068L94.742,118.041
					c-0.736,0.43-1.387,1.166-1.829,2.001l-9.979-5.756c0.454-0.835,1.105-1.571,1.841-2.001l109.298-63.014
					c1.46-0.847,3.842-0.847,5.302-0.012l4.688,2.7C205.402,52.745,206.556,54.512,206.814,56.095z"/>
				<path id="XMLID_9621_" style="fill:#F0F0F0;" d="M92.265,122.636l9.615,166.574c0.098,1.692,1.367,2.376,2.834,1.529
					l109.301-63.016c1.467-0.847,2.578-2.906,2.48-4.598L206.88,56.553c-0.098-1.692-1.366-2.376-2.834-1.529L94.745,118.039
					C93.278,118.886,92.167,120.945,92.265,122.636z"/>
			</g>
		</g>
		<path style="fill:#27DEBF;" d="M125.585,88.738l9.893,5.712c0.74,0.427,1.941,0.427,2.681,0l26.661-15.392
			c0.74-0.427,1.34-1.467,1.34-2.322l0-1.744c0-0.855-0.601-1.894-1.341-2.322l-9.893-5.712c-0.74-0.427-1.941-0.427-2.681,0
			l-26.66,15.392c-0.74,0.427-1.34,1.467-1.34,2.322v1.744C124.244,87.271,124.844,88.31,125.585,88.738z"/>
		<path style="opacity:0.4;fill:#FFFFFF;" d="M125.585,83.898l9.894,5.713c0.74,0.427,1.941,0.427,2.681,0l26.658-15.392
			c0.74-0.427,0.74-1.12,0-1.548l-9.893-5.712c-0.74-0.427-1.941-0.427-2.681,0l-26.66,15.392
			C124.844,82.777,124.844,83.47,125.585,83.898z"/>
		<path style="opacity:0.1;" d="M136.65,89.927v4.819c-0.433-0.021-0.846-0.103-1.176-0.299l-9.885-5.706
			c-0.743-0.433-1.341-1.465-1.341-2.322v-1.744c0-0.753,0.464-1.661,1.094-2.146c-0.485,0.413-0.403,0.991,0.248,1.372l9.885,5.706
			C135.804,89.804,136.217,89.907,136.65,89.927z"/>
		<g>
			<path style="fill:#455A64;" d="M128.039,33.284c-0.072-0.709,0.369-1.572,0.986-1.928c1.604-0.926,4.544-2.624,6.148-3.55
				c0.617-0.356,1.617-0.356,2.234,0l2.486,1.435c0.617,0.356,1.176,1.219,1.248,1.928l4.061,39.856l-12.575,7.26L128.039,33.284z"
				/>
			<path style="fill:#263238;" d="M136.815,75.863l-4.19,2.425l-4.592-45c-0.031-0.351,0.062-0.733,0.227-1.083l4.726,2.724
				c-0.175,0.341-0.258,0.733-0.227,1.083L136.815,75.863z"/>
			<path style="fill:#37474F;" d="M132.758,36.008c-0.072-0.709,0.369-1.572,0.986-1.928l6.149-3.55
				c0.617-0.356,1.176-0.07,1.248,0.638l4.061,39.856l-8.383,4.84L132.758,36.008z"/>
		</g>
	</g>
</g>
<g id="Paint_Pots">
	<g id="Paint">
		<path id="XMLID_713_" style="fill:#37474F;" d="M452.077,353.551h-50.164l2.261,35.669l0.004,0
			c-0.037,3.311,2.113,6.646,6.461,9.22c8.691,5.145,22.875,5.298,31.68,0.342c4.442-2.501,6.658-5.824,6.655-9.164L452.077,353.551
			z"/>
		<path id="XMLID_709_" style="fill:#455A64;" d="M409.332,342.445c-9.862,5.556-9.962,14.733-0.221,20.499
			c9.74,5.766,25.634,5.937,35.501,0.383c9.867-5.554,9.966-14.732,0.221-20.499C435.088,337.061,419.194,336.89,409.332,342.445z"
			/>
		<path id="XMLID_708_" style="fill:#263238;" d="M449.905,353.124c0,0.656-0.137,1.311-0.355,1.967
			c-0.765,2.349-2.813,4.534-6.009,6.337c-4.452,2.486-10.379,3.824-16.716,3.769c-6.31-0.082-12.209-1.53-16.607-4.124
			c-3.086-1.83-5.107-4.042-5.818-6.336c-0.246-0.683-0.355-1.393-0.355-2.103c0.055-3.059,2.294-6.009,6.364-8.276
			c4.425-2.513,10.379-3.851,16.688-3.769c6.337,0.055,12.236,1.53,16.634,4.124C447.747,347.088,449.932,350.065,449.905,353.124z"
			/>
		<path style="fill:#27DEBF;" d="M427.098,357.1c-6.309-0.055-12.263,1.284-16.688,3.797c-0.084,0.047-0.159,0.097-0.241,0.144
			c0.017,0.01,0.032,0.021,0.05,0.032c4.398,2.595,10.297,4.042,16.607,4.124c6.337,0.055,12.263-1.284,16.716-3.769
			c0.083-0.047,0.157-0.097,0.239-0.145c-0.017-0.01-0.032-0.021-0.048-0.031C439.334,358.656,433.435,357.181,427.098,357.1z"/>
		<path style="opacity:0.15;fill:#263238;" d="M428.715,365.161c-1.701-0.371-3.26-0.944-4.565-1.714
			c-1.647-0.977-2.725-2.157-3.104-3.381c-0.131-0.365-0.189-0.743-0.189-1.122c0.009-0.496,0.138-0.985,0.357-1.462
			c-4.061,0.553-7.791,1.704-10.804,3.415c-0.084,0.047-0.158,0.097-0.241,0.144c0.017,0.01,0.032,0.021,0.05,0.032
			c4.398,2.595,10.297,4.043,16.607,4.125C427.461,365.202,428.089,365.183,428.715,365.161z"/>
		<path id="XMLID_699_" style="fill:#263238;" d="M436.512,366.952c0.982-0.553,1.768-0.088,1.756,1.039
			c-0.012,1.127-0.819,2.49-1.801,3.044c-0.983,0.554-1.769,0.089-1.755-1.039C434.724,368.867,435.531,367.505,436.512,366.952z"/>
		<g id="XMLID_692_">
			<path id="XMLID_695_" style="fill:#E0E0E0;" d="M402.494,363.513c-2.164,5.54-3.843,13.085,0.997,16.664
				c0.268,0.195,0.512,0.366,0.78,0.536l-0.024,2.34c-0.634-0.39-1.292-0.828-1.926-1.292c-7.2-5.335-2.794-17.004-0.031-22.68
				L402.494,363.513z"/>
			<path id="XMLID_693_" style="fill:#E0E0E0;" d="M437.346,369.453c-0.268,0.561-7.19,13.795-18.573,16.452
				c-1.316,0.317-2.608,0.463-3.924,0.463c-3.534,0-7.068-1.097-10.603-3.315l0.024-2.34c4.704,3.266,9.433,4.387,14.064,3.315
				c10.505-2.462,17.232-15.355,17.281-15.477c0.244-0.488,0.853-0.658,1.316-0.415C437.419,368.38,437.614,368.965,437.346,369.453
				z"/>
		</g>
	</g>
	<g id="Paint_1_">
		<path id="XMLID_748_" style="fill:#37474F;" d="M83.407,327.582H33.243l2.261,35.669l0.004,0c-0.037,3.311,2.113,6.647,6.461,9.22
			c8.692,5.145,22.875,5.298,31.68,0.342c4.442-2.501,6.658-5.824,6.655-9.164L83.407,327.582z"/>
		<path id="XMLID_721_" style="fill:#455A64;" d="M40.661,316.476c-9.862,5.556-9.961,14.733-0.221,20.499
			c9.74,5.766,25.635,5.937,35.501,0.383c9.867-5.554,9.966-14.732,0.221-20.499C66.418,311.092,50.524,310.921,40.661,316.476z"/>
		<path id="XMLID_719_" style="fill:#263238;" d="M81.235,327.155c0,0.656-0.137,1.311-0.355,1.967
			c-0.765,2.349-2.813,4.534-6.009,6.336c-4.452,2.486-10.379,3.824-16.716,3.769c-6.309-0.082-12.209-1.53-16.607-4.124
			c-3.087-1.83-5.108-4.042-5.818-6.336c-0.246-0.683-0.355-1.393-0.355-2.103c0.055-3.059,2.294-6.009,6.364-8.276
			c4.425-2.513,10.379-3.851,16.688-3.769c6.337,0.055,12.236,1.53,16.634,4.124C79.077,321.119,81.262,324.096,81.235,327.155z"/>
		<path style="fill:#27DEBF;" d="M41.548,335.103c4.398,2.595,10.297,4.043,16.607,4.124c6.337,0.055,12.263-1.284,16.715-3.769
			c2.882-1.626,4.821-3.564,5.737-5.651c-0.903-2.04-2.777-3.967-5.546-5.605c-4.397-2.595-10.297-4.07-16.634-4.124
			c-6.309-0.082-12.264,1.256-16.688,3.769c-2.875,1.602-4.815,3.547-5.738,5.628C36.879,331.514,38.781,333.462,41.548,335.103z"/>
		<path style="opacity:0.15;fill:#263238;" d="M74.87,335.458c0.247-0.139,0.477-0.284,0.71-0.427
			c-3.512,1.1-7.494,1.679-11.663,1.643c-6.31-0.082-12.209-1.53-16.607-4.124c-3.087-1.83-5.107-4.042-5.818-6.336
			c-0.235-0.654-0.339-1.332-0.348-2.012c-2.543,1.531-4.286,3.342-5.143,5.274c0.878,2.039,2.78,3.988,5.547,5.628
			c4.398,2.595,10.297,4.043,16.607,4.124C64.492,339.282,70.418,337.944,74.87,335.458z"/>
		<path id="XMLID_718_" style="fill:#263238;" d="M67.842,340.982c0.982-0.553,1.768-0.088,1.756,1.039
			c-0.012,1.127-0.818,2.49-1.801,3.044c-0.983,0.554-1.769,0.089-1.756-1.039C66.054,342.898,66.86,341.536,67.842,340.982z"/>
		<g id="XMLID_714_">
			<path id="XMLID_717_" style="fill:#E0E0E0;" d="M33.824,337.544c-2.164,5.54-3.843,13.085,0.997,16.664
				c0.268,0.195,0.512,0.366,0.78,0.536l-0.025,2.34c-0.634-0.39-1.292-0.828-1.925-1.292c-7.2-5.335-2.794-17.004-0.032-22.68
				L33.824,337.544z"/>
			<path id="XMLID_716_" style="fill:#E0E0E0;" d="M68.676,343.484c-0.268,0.561-7.19,13.795-18.572,16.452
				c-1.316,0.317-2.608,0.463-3.924,0.463c-3.534,0-7.068-1.097-10.603-3.315l0.025-2.34c4.704,3.266,9.432,4.387,14.063,3.315
				c10.505-2.462,17.232-15.355,17.281-15.477c0.244-0.488,0.853-0.658,1.316-0.415C68.749,342.411,68.944,342.996,68.676,343.484z"
				/>
		</g>
	</g>
</g>
<g id="Character">
	<g id="Character_5_">
		<g>
			<g id="XMLID_811_">
				<path style="fill:#FFA8A7;" d="M308.487,133.385c-4.981-0.691-8.669,1.134-12.315,6.432
					c-3.646,5.298-20.517,33.817-20.517,33.817l-25.856-29.165c-3.511-4.237-6.013-7.012-10.978-9.387
					c-2.152-0.438-4.34-0.555-6.199,0.002c-6.196,1.856-16.652,11.45-8.665,16.006c4.751,2.71,8.316,2.339,12.47,3.73
					c1.34,0.449,3.957,3.073,6.866,6.97c6.56,8.788,19.938,25.382,23.584,28.821c6.366,6.005,11.743,9.42,19.479,0.18
					c9.567-11.427,22.132-29.846,22.132-29.846V133.385"/>
				<path id="XMLID_812_" style="fill:#F28F8F;" d="M234.801,143.461l-9.497,8.315c0,0,0.639,0.156,1.117,0.468
					c0,0,3.562-2.554,5.528-3.95c1.798-1.277,3.976-2.985,3.976-2.985s4.719-0.616,6.668-2.209
					C244.543,141.505,234.801,143.461,234.801,143.461z"/>
			</g>
			<g id="XMLID_749_">
				<g id="Brush_4_">
					<g id="XMLID_872_">
						<path id="XMLID_4698_" style="fill:#27DEBF;" d="M208.213,160.374l-0.001-0.001c0,0,8.014-8.734,16.877-16.288
							c8.788-7.489,19.775-14.025,21.533-14.961c0.007-0.004,0.014-0.008,0.021-0.011c0.008-0.004,0.02-0.011,0.027-0.015
							l0.002,0.002c0.235-0.114,0.518-0.123,0.769,0.005c0.424,0.217,0.592,0.737,0.375,1.161c-0.031,0.06-0.069,0.113-0.11,0.162
							l0.001,0.001c0,0-9.427,11.776-18.073,19.139c-8.646,7.364-18.718,14.004-18.718,14.004l-0.001-0.001
							c-0.236,0.15-0.573,0.172-0.972,0.029c-0.893-0.318-1.754-1.331-1.925-2.263C207.941,160.915,208.021,160.582,208.213,160.374
							z"/>
						<path id="XMLID_4693_" style="opacity:0.1;" d="M247.816,130.267c-0.031,0.06-0.069,0.113-0.11,0.162l0.001,0.001
							c0,0-9.427,11.776-18.073,19.139c-5.815,4.953-12.276,9.579-15.883,12.076l-1.367-2.319c0,0,35.509-29.624,35.057-30.222
							C247.866,129.322,248.033,129.843,247.816,130.267z"/>
					</g>
					<g>
						<path id="XMLID_825_" style="fill:#455A64;" d="M208.706,162.695c-0.285,0.724-1.822,4.663-4.548,6.134
							c-0.247-0.27-0.545-0.528-0.951-0.735c-1.385-0.709-2.25,0.251-3.352-0.176c-1.097-0.424-0.575-2.49-0.571-2.507l0-0.001
							c0.84-1.373,1.684-2.906,3.818-3.994c2.726-1.391,5.109-1.043,5.109-1.043l2.704,3.201v0L208.706,162.695z"/>
					</g>
					<path id="XMLID_810_" style="fill:#37474F;" d="M206.586,170.649c-1.394,0.017-1.648-0.967-2.428-1.82
						c2.726-1.471,4.263-5.41,4.548-6.134l2.209,0.879c-0.129,0.452-0.258,0.941-0.417,1.454c-0.04,0.128-0.081,0.258-0.125,0.389
						c-0.088,0.262-0.185,0.531-0.295,0.802c-0.165,0.408-0.36,0.824-0.597,1.245c-0.158,0.28-0.334,0.562-0.534,0.844
						c-0.398,0.564-0.886,1.129-1.493,1.683C207.176,170.246,206.885,170.462,206.586,170.649z"/>
					<g>
						<path style="fill:#27DEBF;" d="M206.572,170.658c-0.16,0.1-0.323,0.191-0.487,0.274c-0.017,0.008-0.034,0.015-0.05,0.023
							c-0.125,0.061-0.252,0.116-0.379,0.168c-0.049,0.02-0.098,0.041-0.148,0.06c-0.039,0.015-0.078,0.027-0.117,0.041
							c-0.071,0.025-0.142,0.049-0.213,0.072c-0.086,0.027-0.172,0.053-0.258,0.076c-0.197,0.053-0.396,0.096-0.594,0.131
							c-0.198,0.035-0.397,0.061-0.594,0.078c-0.198,0.018-0.394,0.028-0.59,0.031c-1.348,0.021-2.617-0.294-3.532-0.66
							c-0.083-0.033-0.165-0.067-0.242-0.101c-0.023-0.01-0.044-0.02-0.066-0.03c-0.093-0.043-0.184-0.085-0.267-0.127
							c-0.591-0.301-1.1-0.63-1.53-0.954c-0.215-0.162-0.411-0.322-0.587-0.478c-0.177-0.155-0.334-0.305-0.473-0.446
							c-0.07-0.07-0.134-0.138-0.195-0.203c-0.06-0.065-0.116-0.127-0.168-0.186c-0.103-0.118-0.187-0.222-0.255-0.308
							c-0.135-0.173-0.2-0.276-0.2-0.276s1.462,0.158,2.871-1.35c0.293-0.314,0.543-0.683,0.786-1.081
							c-0.004,0.017-0.526,2.083,0.571,2.507c1.102,0.426,1.967-0.533,3.352,0.176c0.406,0.208,0.704,0.465,0.951,0.735
							c0.78,0.853,1.034,1.838,2.428,1.82C206.581,170.652,206.576,170.655,206.572,170.658z"/>
						<path id="XMLID_809_" style="opacity:0.1;" d="M195.627,167.842c0,0,2.643,2.086,6.975,1.506
							c0.556-0.074,1.074-0.259,1.556-0.519c0.78,0.853,1.034,1.838,2.428,1.82c-0.005,0.003-0.009,0.006-0.014,0.009
							c-0.16,0.1-0.323,0.191-0.487,0.274c-0.017,0.008-0.034,0.015-0.05,0.023c-0.125,0.061-0.252,0.116-0.379,0.168
							c-0.049,0.02-0.098,0.041-0.148,0.06c-0.039,0.015-0.078,0.027-0.117,0.041c-0.071,0.025-0.142,0.049-0.213,0.072
							c-0.086,0.027-0.172,0.053-0.258,0.076c-0.197,0.053-0.396,0.096-0.594,0.131c-0.198,0.035-0.397,0.061-0.594,0.078
							c-0.198,0.018-0.394,0.028-0.59,0.031c-1.348,0.021-2.617-0.294-3.532-0.66c-0.083-0.033-0.165-0.067-0.242-0.101
							c-0.023-0.01-0.044-0.02-0.066-0.03c-0.093-0.043-0.184-0.085-0.267-0.127c-0.591-0.301-1.1-0.63-1.53-0.954
							c-0.215-0.162-0.411-0.323-0.587-0.478c-0.177-0.155-0.334-0.305-0.473-0.446c-0.07-0.07-0.135-0.138-0.195-0.203
							c-0.06-0.065-0.116-0.127-0.168-0.186c-0.103-0.118-0.187-0.222-0.255-0.308C195.692,167.944,195.627,167.842,195.627,167.842
							L195.627,167.842z"/>
					</g>
					<g id="XMLID_806_">
						<path id="XMLID_808_" style="fill:#EBEBEB;" d="M210.915,163.574c-0.236,0.149-0.573,0.17-0.971,0.028
							c-0.893-0.318-1.755-1.331-1.925-2.263c-0.078-0.423,0.001-0.757,0.193-0.965c1.119-1.209,2.361-2.506,3.682-3.859
							c-0.258,0.261-0.365,0.691-0.264,1.24c0.216,1.177,1.304,2.457,2.431,2.858c0.539,0.192,0.989,0.149,1.288-0.077
							C213.638,161.727,212.034,162.837,210.915,163.574z"/>
						<path id="XMLID_807_" style="fill:#E0E0E0;" d="M212.384,159.327c0.457,0.584,1.06,1.066,1.676,1.286
							c0.539,0.192,0.989,0.149,1.288-0.077c-1.711,1.191-3.315,2.301-4.434,3.038c-0.236,0.149-0.573,0.17-0.971,0.028
							c-0.448-0.16-0.888-0.495-1.238-0.907l-0.004-0.055L212.384,159.327L212.384,159.327z"/>
					</g>
				</g>
				<path id="XMLID_752_" style="fill:#FFA8A7;" d="M237.304,134.806c-1.229-0.599-3.608-0.998-3.959-1.092
					c-1.553-0.415-2.797-0.587-4.328-0.377c-0.553,0.076-1.114,0.221-1.557,0.559c-0.453,0.346-0.74,0.859-1.048,1.339
					c-1.606,2.503-4.378,3.918-5.98,6.394c-1.418,2.192-3.095,8.511-1.378,10.02c1.069,0.94,3.155-1.516,3.945-3.349
					c0.366,1.407,2.421,0.809,3.814-2.16c1.151-2.452,2.465-5.656,2.465-5.656L237.304,134.806z"/>
				<path id="XMLID_751_" style="fill:#F28F8F;" d="M228.809,138.047c0,0-0.779,0.511-0.657,1.635
					c0.123,1.124,0.666,1.906,0.666,1.906l0.46-1.103L228.809,138.047z"/>
				<path id="XMLID_750_" style="fill:#FFA8A7;" d="M249.799,144.469c-2.885-3.409-5.461-6.253-8.351-6.985
					c-3.877-0.981-4.809-0.005-9.278-0.315c-6.35-0.439-3.402,4.959,1.989,6.16c5.392,1.201,8.435-0.231,8.435-0.231
					S247.559,150.365,249.799,144.469z"/>
			</g>
		</g>
		<g>
			<g id="XMLID_796_">
				<path id="XMLID_797_" style="fill:#263238;" d="M317.539,122.331h10.35c14.141,0,25.605-11.464,25.605-25.605v0
					c0-16.999-13.78-30.78-30.78-30.78h0c-6.888,0-13.994,2.715-18.377,6.086c-19.543-0.659-19.774,24.017-6.342,28.466
					C297.994,114.64,303.398,122.331,317.539,122.331z"/>
			</g>
			<path style="fill:#263238;" d="M336.654,119.448c0.123,3.486,0,8.68,5.926,11.516c0,0-3.402,6.969,3.513,10.29
				c0,0-2.607,6.917,3.135,9.966c0,0-2.292,5.226,2.706,9.642c0,0-4.282,6.624,0,10.951c0,0-2.279,2.062-2.706,5.132
				c-0.426,3.07,1.298,7.288,4.264,8.151c0,0-2.05-2.688,0-4.822c2.05-2.134,3.989-4.558,1.432-7.877c0,0,5.733-2.908,2.007-11.534
				c0,0,4.853-6.281-1.269-10.952c0,0,4.236-7.221-2.878-10.778c0,0,3.991-4.86-1.273-11.004c0,0,7.403-10.016-3.355-18.325
				L336.654,119.448z"/>
		</g>
		<g id="XMLID_784_">
			<g id="XMLID_791_">
				<path id="XMLID_794_" style="fill:#263238;" d="M357.058,397.694c0.301,2.231,0.942,4.835,1.062,11.149
					c0.128,6.767,1.372,9.169,1.536,14.723c0.188,6.346-0.908,8.721-3.483,12.288c-2.575,3.567-9.334,6.804-12.191,0.774
					c-2.891-6.102-2.489-9.978-1.576-16.204c0.944-6.436,1.064-9.991,1.611-14.899c0.482-4.327,1.06-7.613,1.06-7.613
					L357.058,397.694z"/>
				<path id="XMLID_793_" style="fill:#FFA8A7;" d="M337.847,352.736l22.293-0.404c-0.331,14.881-2.696,31.4-3.082,45.362
					c-0.073,2.628,0.066,20.423-0.925,25.831c-1.49,8.125-11.134,7.028-11.645,2.165c-0.512-4.862,0.621-25.637,0.59-27.78
					c0.085-8.954-4.112-24.07-6.313-40.145C338.656,356.976,337.949,353.505,337.847,352.736z"/>
			</g>
			<g id="XMLID_787_">
				<path id="XMLID_789_" style="fill:#263238;" d="M309.211,386.114c0,0,0.88-0.472,1.061,0.466
					c0.216,1.118,0.538,3.421,1.002,5.255c0.645,2.549,1.181,6.749,0.795,8.827c-0.387,2.077-5.23,4.752-8.374,5.717
					c-4.639,1.424-7.822,3.751-10.365,6.143c-3.114,2.931-9.834,5.7-14.411,5.667c-5.415-0.039-9.19-1.804-10.975-4.703
					c-1.863-3.028,1.626-3.251,7.815-7.267c1.405-0.912,3.005-1.943,4.805-3.119c9.805-6.405,13.395-9.837,16.168-16.243
					L309.211,386.114z"/>
				<path id="XMLID_788_" style="fill:#FFA8A7;" d="M296.655,382.149c0.165-4.608-2.995-43.696-2.995-43.696l21.171,9.651
					c-4.534,27.059-5.5,33.44-5.58,37.867l0,0c0.035,0.103,0.125,0.479,0.12,1.134c-0.019,5.257-5.952,8.092-10.58,11.597
					c-1.828,1.384-7.145,5.472-12.517,8.171c-3.363,1.69-10.191,1.844-11.037-0.32c5.632-4.301,13.823-10.737,18.302-15.648
					C295.677,388.56,296.49,386.757,296.655,382.149z"/>
			</g>
			<path id="XMLID_786_" style="fill:#37474F;" d="M351.005,207.538c8.127,17.849,8.127,31.652,6.784,54.425
				c-1.232,20.89-3.197,39.281-3.197,39.281c0.315,3.708,5.467,10.941,6.133,27.322c0.623,15.315-1.055,34.783-1.055,34.783
				s-11.565,6.41-20.117-0.056c0,0-8.252-39.406-10.67-58.576c-2.11-16.73-5.778-38.106-5.778-38.106l-7.768,38.016
				c0,0,2.955,9.372,3.647,16.512c1.092,11.277-5.214,33.418-5.214,33.418s-11.951,3.566-19.248-2.905c0,0-2.729-36-3.748-49.584
				c-1.364-18.19,1.504-67.434,3.749-93.504L351.005,207.538z"/>
			<path id="XMLID_785_" style="fill:#263238;" d="M323.105,266.611l-3.211-28.616c0,0-14.385-1.923-20.901-8.049
				c0,0,3.341,8.932,15.395,10.673l3.403,25.864l-2.454,38.143L323.105,266.611z"/>
		</g>
		<g id="XMLID_756_">
			<path id="XMLID_782_" style="fill:#27DEBF;" d="M333.596,134.029L333.596,134.029c4.3,0.296,12.123,0.985,12.123,0.985
				c4.513,2.518,5.654,4.584,6.493,10.578c0.357,2.55-1.721,9.354-3.506,19.021l-3.387,17.928l0.367,8.891
				c1.759,5.425,5.736,12.167,9.239,22.107c-17.228,9.616-31.678,9.971-44.782,8.289c-9.992-1.282-15.28-3.701-17.043-6.089
				c0.367-9.819,1.177-15.864,1.347-26.122c0.072-4.309-0.302-8.674-0.469-13.633c-6.704-5.507-6.78-14.665-3.123-20.585
				c8.496-13.754,16.756-22.413,22.226-21.969L333.596,134.029z"/>
			<path id="XMLID_781_" style="opacity:0.6;fill:#FFFFFF;" d="M333.596,134.029L333.596,134.029
				c4.3,0.296,12.123,0.985,12.123,0.985c4.513,2.518,5.654,4.584,6.493,10.578c0.357,2.55-1.721,9.354-3.506,19.021l-3.387,17.928
				l0.367,8.891c1.759,5.425,5.736,12.167,9.239,22.107c-17.228,9.616-31.678,9.971-44.782,8.289
				c-9.992-1.282-15.28-3.701-17.043-6.089c0.367-9.819,1.177-15.864,1.347-26.122c0.072-4.309-0.302-8.674-0.469-13.633
				c-6.704-5.507-6.78-14.665-3.123-20.585c8.496-13.754,16.756-22.413,22.226-21.969L333.596,134.029z"/>
			<g id="XMLID_757_">
				<g id="XMLID_780_">
					<path style="fill:#FFA8A7;" d="M296.645,105.85c0.339,14.898,5.174,18.58,7.597,19.638c2.423,1.058,7.1,0.413,11.639-0.339
						v8.941c0,0-5.237,5.491-4.846,9.586c0.402,4.105,8.232,4.56,14.115,0.55c4.294-2.924,7.36-6.267,8.698-7.853
						c0.487-0.577,0.75-1.302,0.75-2.057v-21.038c0,0,2.486,2.634,6.888-0.381c4.391-3.005,4.772-8.613,2.085-11.787
						c-1.915-2.254-6.782-2.412-9.121,1.09c-1.312,2.571-1.492,5.153-2.963,4.084c-3.925-2.825-3.102-8.59-4.719-9.876
						c-2.355-1.875-4.953-2.009-9.581-3.557c-4.276-1.43-11.779-4.862-14.649-12.257C299.206,82.572,296.233,88.275,296.645,105.85z
						"/>
				</g>
				<g id="XMLID_778_">
					<path id="XMLID_779_" style="fill:#263238;" d="M313.178,102.897c-0.058,1.15,0.793,2.124,1.899,2.177
						c1.107,0.052,2.051-0.837,2.108-1.987c0.057-1.149-0.793-2.124-1.899-2.176C314.18,100.858,313.236,101.747,313.178,102.897z"
						/>
				</g>
				<g id="XMLID_776_">
					<path id="XMLID_777_" style="fill:#263238;" d="M298.542,102.374c-0.055,1.083,0.747,2.002,1.79,2.051
						c1.147,0.055,1.927-0.68,1.987-1.872c0.055-1.084-0.747-2.002-1.79-2.051C299.486,100.452,298.596,101.29,298.542,102.374z"/>
				</g>
				<g id="XMLID_772_">
					<polygon id="XMLID_775_" style="fill:#F28F8F;" points="307.879,100.499 307.548,113.031 300.952,110.988 					"/>
				</g>
				<g id="XMLID_766_">
					<path id="XMLID_771_" style="fill:#F28F8F;" d="M315.886,125.146c4.791-0.628,14.647-3.459,16.183-7.356
						c0,0-0.512,2.449-3.456,4.973c-2.944,2.523-12.727,5.366-12.727,5.366V125.146z"/>
				</g>
				<path id="XMLID_764_" style="fill:#263238;" d="M314.403,96.349l5.144,2.211c0.581-1.473-0.1-3.161-1.52-3.772
					C316.606,94.177,314.983,94.876,314.403,96.349z"/>
				<path id="XMLID_753_" style="fill:#B16668;" d="M316.346,114.272l-6.272,2.182c0.67,1.754,2.195,2.692,4.156,2.134
					C315.994,118.086,317.017,116.026,316.346,114.272z"/>
				<path id="XMLID_759_" style="fill:#263238;" d="M298.134,97.467l4.577-2.379c-0.614-1.299-2.137-1.819-3.401-1.162
					C298.046,94.583,297.52,96.168,298.134,97.467z"/>
			</g>
		</g>
		<g>
			<g>
				<path style="fill:#27DEBF;" d="M291.638,154.144c12.241,4.982,23.834,4.501,30.49,4.017c3.856-0.281,6.143,0.024,6.679,6.993
					c0.267,3.479,2.219,28.73,2.219,28.73s-20.423,5.425-36.738-2.128c0,0-5.711-19.51-6.267-25.951
					C287.464,159.364,291.638,154.144,291.638,154.144z"/>
				<path style="opacity:0.3;fill:#263238;" d="M291.638,154.144c12.241,4.982,23.834,4.501,30.49,4.017
					c3.856-0.281,6.143,0.024,6.679,6.993c0.267,3.479,2.219,28.73,2.219,28.73s-20.423,5.425-36.738-2.128
					c0,0-5.711-19.51-6.267-25.951C287.464,159.364,291.638,154.144,291.638,154.144z"/>
			</g>
			<g>
				<path style="fill:#27DEBF;" d="M294.042,198.321c0,0-1.182,12.357-2.615,30.259c-1.432,17.903-2.742,38.962-2.989,42.743
					c-0.247,3.781,7.992,7.735,17.164,9.813c10.096,2.287,21.827,3.01,26.861,2.287c5.034-0.723,7.738-2.167,7.878-7.413
					c0.14-5.246-8.83-75.416-8.83-75.416L294.042,198.321z"/>
				<path style="opacity:0.3;fill:#263238;" d="M294.042,198.321c0,0-1.182,12.357-2.615,30.259
					c-1.432,17.903-2.742,38.962-2.989,42.743c-0.247,3.781,7.992,7.735,17.164,9.813c10.096,2.287,21.827,3.01,26.861,2.287
					c5.034-0.723,7.738-2.167,7.878-7.413c0.14-5.246-8.83-75.416-8.83-75.416L294.042,198.321z"/>
			</g>
			<g>
				<path style="fill:#27DEBF;" d="M294.288,191.756c6.134,2.224,25.316,6.508,51.347-1.563l1.977,6.111
					c0,0-24.507,11.234-53.57,2.017L294.288,191.756z"/>
				<path style="opacity:0.45;fill:#263238;" d="M294.288,191.756c6.134,2.224,25.316,6.508,51.347-1.563l1.977,6.111
					c0,0-24.507,11.234-53.57,2.017L294.288,191.756z"/>
			</g>
			<g>
				<g>
					<path style="fill:#27DEBF;" d="M335.974,134.204c-3.88,2.022-17.628,12.903-18.472,27.411c0,3.429,5.988,3.429,5.989,0
						c0,0,0.172-7.481,7.535-16.13c7.23-8.493,12.853-10.778,12.853-10.778S341.131,134.074,335.974,134.204z"/>
					<path style="fill:#27DEBF;" d="M308.487,133.385c-3.88,2.023-12.668,8.233-17.94,23.573c-0.891,3.643,4.481,4.59,5.375,0.955
						c0,0,1.102-4.94,7.199-13.634c5.839-8.324,12.762-10.787,12.762-10.787S314.087,132.671,308.487,133.385z"/>
				</g>
				<g style="opacity:0.55;">
					<path style="fill:#263238;" d="M335.974,134.204c-3.88,2.022-17.628,12.903-18.472,27.411c0,3.429,5.988,3.429,5.989,0
						c0,0,0.172-7.481,7.535-16.13c7.23-8.493,12.853-10.778,12.853-10.778S341.131,134.074,335.974,134.204z"/>
					<path style="fill:#263238;" d="M308.487,133.385c-3.88,2.023-12.668,8.233-17.94,23.573c-0.891,3.643,4.481,4.59,5.375,0.955
						c0,0,1.102-4.94,7.199-13.634c5.839-8.324,12.762-10.787,12.762-10.787S314.087,132.671,308.487,133.385z"/>
				</g>
				<path style="fill:#263238;" d="M322.206,160.945c0,0.99-0.803,1.793-1.793,1.793c-0.991,0-1.793-0.803-1.793-1.793
					c0-0.99,0.803-1.793,1.793-1.793C321.403,159.151,322.206,159.954,322.206,160.945z"/>
				<path style="fill:#263238;" d="M295.196,156.958c0,0.99-0.803,1.793-1.793,1.793c-0.991,0-1.793-0.803-1.793-1.793
					c0-0.99,0.803-1.793,1.793-1.793C294.393,155.165,295.196,155.967,295.196,156.958z"/>
			</g>
			<g>
				<path style="fill:#27DEBF;" d="M292.937,210.532c5.189,2.654,21.052,4.145,31.144,2.712c0,0,0.467,17.224,0,20.053
					c-0.467,2.829-1.269,4.469-7.163,4.859c-7.142,0.472-18.931-0.713-23.981-3.424c-2.881-1.547-2.646-2.073-2.517-6.968
					C290.529,223.594,292.937,210.532,292.937,210.532z"/>
				<path style="opacity:0.55;fill:#263238;" d="M292.937,210.532c5.189,2.654,21.052,4.145,31.144,2.712c0,0,0.467,17.224,0,20.053
					c-0.467,2.829-1.269,4.469-7.163,4.859c-7.142,0.472-18.931-0.713-23.981-3.424c-2.881-1.547-2.646-2.073-2.517-6.968
					C290.529,223.594,292.937,210.532,292.937,210.532z"/>
			</g>
		</g>
		<g>
			<path style="fill:#FFA8A7;" d="M343.879,134.706c4.558-0.022,8.763-0.243,12.404,4.285c3.641,4.528,21.339,34.359,25.423,41.282
				c4.085,6.922,5.245,11.483,0,16.323c-5.635,5.2-34.65,23.989-34.65,23.989l-11.23-9.843l27.072-23.309l-18.746-25.92
				C344.153,161.512,334.116,146.134,343.879,134.706z"/>
			<path style="fill:#FFA8A7;" d="M347.057,220.585c-6.211,4.759-16.034,12.621-26.124,12.621c-12.817,0-20.085-7.178-15.686-10.986
				c4.399-3.808,20.774-5.436,30.58-11.478L347.057,220.585z"/>
			<g>
				<path style="fill:#263238;" d="M358.966,199.263c-9.704-4.236-20.243-4.359-25.301-1.664c-5.059,2.694-4.595,5.858-4.229,8.867
					c0.298,2.444-3.362,5.263-12.568,3.81c-9.73-1.536-20.05-0.7-23.891,4.696c-4.882,6.858,6.474,15.811,23.66,20.222
					c23.592,6.055,49.186,1.179,58.435-11.394C383.809,211.924,366.029,202.347,358.966,199.263z"/>
				<path style="fill:#27DEBF;" d="M314.555,222.462c-2.524,1.457-6.341,1.615-8.527,0.353c-2.186-1.262-1.911-3.466,0.612-4.923
					c2.524-1.457,6.341-1.615,8.527-0.354C317.353,218.801,317.078,221.005,314.555,222.462z"/>
				<path style="fill:#27DEBF;" d="M332.617,230.021c-2.524,1.457-6.341,1.615-8.527,0.353c-2.186-1.262-1.911-3.466,0.612-4.923
					c2.524-1.457,6.341-1.615,8.527-0.354C335.414,226.359,335.14,228.564,332.617,230.021z"/>
				<path style="fill:#27DEBF;" d="M354.305,229.593c-2.524,1.457-6.341,1.615-8.527,0.354c-2.186-1.262-1.911-3.466,0.612-4.923
					c2.524-1.457,6.341-1.615,8.527-0.354C357.103,225.932,356.829,228.136,354.305,229.593z"/>
				<path style="fill:#27DEBF;" d="M367.904,219.402c-2.524,1.457-6.341,1.615-8.527,0.353c-2.186-1.262-1.911-3.466,0.612-4.923
					c2.524-1.457,6.341-1.615,8.527-0.353C370.702,215.74,370.428,217.945,367.904,219.402z"/>
				<path style="fill:#27DEBF;" d="M357.065,208.561c-2.524,1.457-6.341,1.615-8.527,0.354c-2.186-1.262-1.911-3.466,0.612-4.923
					c2.524-1.457,6.341-1.615,8.527-0.354C359.863,204.9,359.589,207.104,357.065,208.561z"/>
				<path style="opacity:0.7;fill:#FAFAFA;" d="M314.555,222.462c-2.524,1.457-6.341,1.615-8.527,0.353
					c-2.186-1.262-1.911-3.466,0.612-4.923c2.524-1.457,6.341-1.615,8.527-0.354C317.353,218.801,317.078,221.005,314.555,222.462z"
					/>
				<path style="opacity:0.4;fill:#FAFAFA;" d="M332.617,230.021c-2.524,1.457-6.341,1.615-8.527,0.353
					c-2.186-1.262-1.911-3.466,0.612-4.923c2.524-1.457,6.341-1.615,8.527-0.354C335.414,226.359,335.14,228.564,332.617,230.021z"
					/>
				<path style="opacity:0.3;" d="M367.904,219.402c-2.524,1.457-6.341,1.615-8.527,0.353c-2.186-1.262-1.911-3.466,0.612-4.923
					c2.524-1.457,6.341-1.615,8.527-0.353C370.702,215.74,370.428,217.945,367.904,219.402z"/>
				<path style="opacity:0.5;" d="M357.065,208.561c-2.524,1.457-6.341,1.615-8.527,0.354c-2.186-1.262-1.911-3.466,0.612-4.923
					c2.524-1.457,6.341-1.615,8.527-0.354C359.863,204.9,359.589,207.104,357.065,208.561z"/>
			</g>
			<path style="fill:#FFA8A7;" d="M338.807,208.387c-3.092-0.83-4.271-1.091-7.298-1.899c-3.027-0.808-6.075-0.827-9.595,1.327
				c-2.763,1.691-6.792,3.828-6.186,4.865c1.09,1.866,4.819,1.687,8.485,0.639c2.184-0.624,5.36,1.047,9.551,1.047
				C337.955,214.366,344.142,210.4,338.807,208.387z"/>
		</g>
	</g>
</g>
<g id="Brushes">
	<g id="Penciles_1_">
		<g id="Pencil_Can_1_">
			<g id="Can_1_">
				<path id="XMLID_5826_" style="fill:#27DEBF;" d="M259.048,335.743h-34.51l3.859,31.766h0.015
					c0.176,1.839,1.466,3.648,3.898,5.053c5.246,3.029,13.751,3.029,18.996,0c2.433-1.405,3.722-3.215,3.899-5.053h0.014
					L259.048,335.743z"/>
				<path id="XMLID_5825_" style="opacity:0.65;fill:#FFFFFF;" d="M259.048,335.743h-34.51l3.859,31.766h0.015
					c0.176,1.839,1.466,3.648,3.898,5.053c5.246,3.029,13.751,3.029,18.996,0c2.433-1.405,3.722-3.215,3.899-5.053h0.014
					L259.048,335.743z"/>
				<path id="XMLID_5824_" style="fill:#27DEBF;" d="M229.596,328.693c6.744-3.894,17.679-3.894,24.424,0
					c6.744,3.894,6.744,10.207,0,14.101c-6.744,3.894-17.679,3.894-24.424,0C222.852,338.9,222.851,332.586,229.596,328.693z"/>
				<path id="XMLID_5823_" style="opacity:0.8;fill:#FFFFFF;" d="M229.596,328.693c6.744-3.894,17.679-3.894,24.424,0
					c6.744,3.894,6.744,10.207,0,14.101c-6.744,3.894-17.679,3.894-24.424,0C222.852,338.9,222.851,332.586,229.596,328.693z"/>
				<path id="XMLID_5822_" style="fill:#263238;" d="M241.808,343.71c-4.266,0-8.247-0.942-11.209-2.652
					c-2.616-1.51-4.057-3.398-4.057-5.315c0-1.917,1.441-3.804,4.056-5.315c2.962-1.71,6.943-2.652,11.21-2.652
					c4.267,0,8.248,0.942,11.21,2.652c2.616,1.51,4.057,3.398,4.057,5.315c0,1.918-1.441,3.805-4.057,5.315
					C250.056,342.768,246.074,343.71,241.808,343.71z"/>
			</g>
			<g id="XMLID_824_">
				<defs>
					<path id="XMLID_4699_" d="M241.327,343.71c-3.735,0.054-8.445-1.196-10.729-2.652c-2.507-1.417-4.057-3.309-4.057-5.315
						c0-1.584-7.87-41.811-7.87-41.811l22.246-25.179l30.695,23.538c0,0-4.276,28.603-5.328,38.806
						c-0.195,1.89-9.211,4.399-9.211,4.646c0,3.224-3.246,4.951-5.536,6.056C249.028,343.01,245.252,343.776,241.327,343.71z"/>
				</defs>
				<clipPath id="XMLID_00000034086292580918116730000018314695644570103978_">
					<use xlink:href="#XMLID_4699_"  style="overflow:visible;"/>
				</clipPath>
				<g id="XMLID_754_" style="clip-path:url(#XMLID_00000034086292580918116730000018314695644570103978_);">
					<g id="Brush_2_">
						<g id="XMLID_814_">
							<path id="XMLID_816_" style="fill:#27DEBF;" d="M232.341,312.278l0.002,0c0,0,3.08,11.447,4.708,22.977
								c1.614,11.433,1.244,24.212,1.093,26.197c0,0.008-0.001,0.016-0.002,0.024c-0.001,0.009-0.002,0.022-0.002,0.031l-0.003,0
								c-0.03,0.26-0.174,0.504-0.417,0.647c-0.411,0.242-0.94,0.105-1.182-0.306c-0.034-0.058-0.059-0.118-0.078-0.18l-0.002,0
								c0,0-4.89-14.27-6.475-25.515c-1.584-11.246-1.793-23.308-1.793-23.308l0.001,0c0-0.28,0.162-0.576,0.496-0.836
								c0.747-0.583,2.064-0.768,2.943-0.413C232.031,311.758,232.268,312.004,232.341,312.278z"/>
							<path id="XMLID_815_" style="opacity:0.1;" d="M236.539,361.849c-0.034-0.058-0.059-0.118-0.078-0.18l-0.002,0
								c0,0-4.89-14.27-6.475-25.515c-1.066-7.564-1.509-15.498-1.685-19.882l2.69,0.089c0,0,5.984,45.855,6.73,45.794
								C237.309,362.396,236.781,362.259,236.539,361.849z"/>
						</g>
						<g>
							<path id="XMLID_813_" style="fill:#455A64;" d="M230.117,311.451c-0.459-0.629-2.961-4.037-2.742-7.127
								c0.361-0.064,0.738-0.178,1.131-0.409c1.341-0.79,0.994-2.034,1.945-2.736c0.946-0.699,2.41,0.849,2.423,0.862l0,0
								c0.709,1.445,1.551,2.979,1.327,5.364c-0.286,3.047-1.857,4.872-1.857,4.872l-4.151,0.568l0,0L230.117,311.451z"/>
						</g>
						<path id="XMLID_805_" style="fill:#37474F;" d="M224.538,305.398c0.733-1.186,1.7-0.873,2.838-1.074
							c-0.219,3.09,2.283,6.499,2.742,7.127l-1.926,1.394c-0.312-0.351-0.656-0.722-1.004-1.132
							c-0.087-0.102-0.174-0.207-0.262-0.315c-0.175-0.215-0.349-0.44-0.519-0.679c-0.256-0.358-0.503-0.746-0.731-1.171
							c-0.152-0.284-0.296-0.584-0.427-0.903c-0.263-0.638-0.479-1.353-0.621-2.162C224.562,306.112,224.535,305.75,224.538,305.398
							z"/>
						<g>
							<path style="fill:#27DEBF;" d="M224.538,305.381c0.001-0.189,0.012-0.375,0.03-0.558c0.002-0.018,0.005-0.037,0.007-0.055
								c0.015-0.139,0.037-0.275,0.061-0.41c0.01-0.052,0.018-0.105,0.029-0.156c0.008-0.041,0.019-0.081,0.028-0.121
								c0.017-0.073,0.034-0.146,0.053-0.219c0.023-0.087,0.048-0.173,0.074-0.259c0.061-0.195,0.131-0.386,0.208-0.572
								c0.077-0.186,0.162-0.367,0.252-0.544c0.091-0.176,0.188-0.348,0.29-0.514c0.704-1.149,1.65-2.052,2.45-2.628
								c0.073-0.052,0.145-0.103,0.215-0.15c0.021-0.014,0.041-0.026,0.061-0.04c0.086-0.056,0.17-0.11,0.251-0.157
								c0.571-0.338,1.121-0.591,1.625-0.781c0.252-0.095,0.492-0.174,0.718-0.24c0.226-0.066,0.437-0.118,0.63-0.161
								c0.096-0.021,0.189-0.039,0.276-0.056c0.087-0.016,0.17-0.03,0.247-0.042c0.154-0.024,0.288-0.039,0.397-0.05
								c0.218-0.021,0.34-0.021,0.34-0.021s-0.917,1.15-0.399,3.147c0.108,0.416,0.286,0.825,0.492,1.243
								c-0.012-0.013-1.476-1.561-2.423-0.862c-0.95,0.702-0.603,1.946-1.945,2.736c-0.393,0.231-0.77,0.345-1.131,0.409
								c-1.138,0.201-2.105-0.112-2.838,1.074C224.538,305.392,224.538,305.387,224.538,305.381z"/>
							<path id="XMLID_804_" style="opacity:0.1;" d="M232.781,297.65c0,0-3.178,1.114-5.01,5.082
								c-0.235,0.509-0.357,1.045-0.396,1.591c-1.138,0.201-2.105-0.112-2.838,1.074c0-0.005,0-0.011,0-0.017
								c0.001-0.189,0.012-0.375,0.03-0.558c0.002-0.018,0.005-0.037,0.007-0.055c0.015-0.139,0.037-0.275,0.061-0.41
								c0.009-0.052,0.018-0.105,0.029-0.156c0.008-0.041,0.019-0.081,0.028-0.121c0.017-0.073,0.034-0.146,0.053-0.219
								c0.023-0.087,0.048-0.173,0.074-0.259c0.061-0.195,0.131-0.386,0.208-0.572c0.077-0.186,0.161-0.367,0.252-0.544
								c0.091-0.176,0.188-0.348,0.29-0.514c0.704-1.149,1.65-2.052,2.45-2.628c0.073-0.052,0.145-0.103,0.215-0.15
								c0.021-0.014,0.041-0.026,0.061-0.04c0.086-0.056,0.17-0.11,0.251-0.157c0.571-0.338,1.121-0.591,1.625-0.781
								c0.252-0.095,0.492-0.174,0.718-0.24c0.226-0.066,0.437-0.118,0.63-0.161c0.097-0.021,0.189-0.039,0.276-0.056
								c0.087-0.016,0.17-0.03,0.247-0.042c0.154-0.024,0.288-0.039,0.397-0.05C232.659,297.65,232.781,297.65,232.781,297.65
								L232.781,297.65z"/>
						</g>
						<g id="XMLID_799_">
							<path id="XMLID_803_" style="fill:#EBEBEB;" d="M228.191,312.845c0.001-0.279,0.164-0.575,0.497-0.835
								c0.747-0.583,2.064-0.768,2.943-0.413c0.399,0.161,0.639,0.406,0.712,0.68c0.421,1.592,0.851,3.336,1.285,5.177
								c-0.083-0.358-0.388-0.679-0.906-0.888c-1.109-0.449-2.773-0.215-3.716,0.521c-0.451,0.352-0.655,0.755-0.625,1.129
								C228.292,316.134,228.215,314.184,228.191,312.845z"/>
							<path id="XMLID_802_" style="fill:#E0E0E0;" d="M230.99,316.361c-0.738,0.073-1.469,0.324-1.984,0.726
								c-0.451,0.352-0.655,0.755-0.625,1.129c-0.089-2.083-0.166-4.032-0.19-5.372c0.001-0.279,0.164-0.575,0.497-0.835
								c0.375-0.293,0.894-0.485,1.429-0.559l0.049,0.026L230.99,316.361L230.99,316.361z"/>
						</g>
					</g>
				</g>
				<g id="XMLID_790_" style="clip-path:url(#XMLID_00000034086292580918116730000018314695644570103978_);">
					<g id="Brush_3_">
						<g id="XMLID_821_">
							<path id="XMLID_823_" style="fill:#27DEBF;" d="M243.331,288.846h0.002c0,0,1.769,37.755,1.902,49.399
								c0.132,11.546-1.877,24.171-2.282,26.121c-0.001,0.008-0.003,0.016-0.005,0.023c-0.002,0.009-0.004,0.022-0.006,0.03h-0.003
								c-0.063,0.254-0.237,0.477-0.496,0.588c-0.438,0.187-0.945-0.017-1.132-0.455c-0.026-0.062-0.043-0.125-0.054-0.189l-0.002,0
								c0,0-3.017-14.78-3.143-26.135s1.031-49.352,1.031-49.352l0.001,0c0.036-0.277,0.235-0.55,0.599-0.766
								c0.815-0.482,2.146-0.496,2.971-0.031C243.09,288.29,243.294,288.565,243.331,288.846z"/>
							<path id="XMLID_822_" style="opacity:0.1;" d="M241.31,364.552c-0.026-0.062-0.043-0.125-0.054-0.189l-0.002,0
								c0,0-3.017-14.78-3.143-26.135c-0.085-7.639,0.31-41.57,0.698-45.94l2.657,0.434c0,0,0.228,72.251,0.977,72.286
								C242.004,365.194,241.497,364.99,241.31,364.552z"/>
						</g>
						<g>
							<path id="XMLID_820_" style="fill:#455A64;" d="M241.232,287.739c-0.374-0.682-2.418-4.384-1.803-7.42
								c0.366-0.017,0.754-0.082,1.174-0.26c1.431-0.611,1.247-1.89,2.28-2.463c1.028-0.571,2.281,1.151,2.292,1.166l0,0.001
								c0.518,1.524,1.155,3.154,0.627,5.49c-0.675,2.985-2.468,4.593-2.468,4.593l-4.19,0.03l0,0L241.232,287.739z"/>
						</g>
						<path id="XMLID_819_" style="fill:#37474F;" d="M236.476,281.02c0.879-1.082,1.798-0.648,2.952-0.701
							c-0.614,3.036,1.429,6.738,1.803,7.42l-2.089,1.135c-0.265-0.388-0.558-0.8-0.85-1.251c-0.073-0.113-0.146-0.228-0.219-0.345
							c-0.146-0.236-0.289-0.482-0.428-0.74c-0.208-0.388-0.403-0.804-0.575-1.255c-0.114-0.301-0.218-0.617-0.307-0.95
							c-0.179-0.667-0.301-1.403-0.338-2.224C236.409,281.731,236.428,281.369,236.476,281.02z"/>
						<g>
							<path style="fill:#27DEBF;" d="M236.479,281.004c0.026-0.187,0.06-0.37,0.101-0.549c0.004-0.018,0.01-0.036,0.014-0.054
								c0.033-0.135,0.072-0.268,0.113-0.398c0.016-0.051,0.031-0.102,0.049-0.152c0.014-0.039,0.029-0.077,0.044-0.116
								c0.026-0.071,0.053-0.141,0.081-0.21c0.034-0.083,0.07-0.166,0.107-0.247c0.086-0.186,0.179-0.366,0.279-0.54
								c0.1-0.175,0.207-0.344,0.32-0.507c0.113-0.163,0.231-0.321,0.353-0.473c0.846-1.049,1.9-1.823,2.767-2.292
								c0.079-0.042,0.157-0.084,0.232-0.121c0.022-0.011,0.044-0.021,0.066-0.032c0.092-0.044,0.183-0.087,0.269-0.124
								c0.61-0.262,1.188-0.442,1.712-0.565c0.262-0.062,0.511-0.109,0.743-0.146c0.232-0.036,0.448-0.061,0.645-0.078
								c0.098-0.008,0.192-0.015,0.281-0.02c0.089-0.005,0.172-0.008,0.25-0.01c0.156-0.004,0.29-0.002,0.4,0.002
								c0.219,0.007,0.34,0.023,0.34,0.023s-1.057,1.023-0.8,3.07c0.053,0.426,0.178,0.855,0.328,1.296
								c-0.01-0.014-1.264-1.737-2.292-1.166c-1.033,0.574-0.848,1.853-2.28,2.463c-0.419,0.179-0.808,0.243-1.174,0.26
								c-1.155,0.053-2.074-0.381-2.952,0.701C236.477,281.014,236.478,281.009,236.479,281.004z"/>
							<path id="XMLID_818_" style="opacity:0.1;" d="M245.646,274.395c0,0-3.295,0.697-5.621,4.396
								c-0.298,0.475-0.488,0.991-0.597,1.527c-1.155,0.053-2.074-0.381-2.952,0.701c0.001-0.006,0.002-0.011,0.003-0.016
								c0.026-0.187,0.06-0.37,0.101-0.549c0.004-0.018,0.01-0.036,0.014-0.054c0.033-0.135,0.072-0.268,0.113-0.398
								c0.016-0.051,0.031-0.102,0.049-0.152c0.014-0.039,0.029-0.077,0.044-0.116c0.026-0.071,0.053-0.141,0.081-0.21
								c0.034-0.083,0.07-0.166,0.107-0.247c0.086-0.186,0.179-0.366,0.279-0.54c0.1-0.175,0.207-0.344,0.32-0.507
								c0.113-0.163,0.231-0.321,0.353-0.473c0.846-1.049,1.9-1.823,2.767-2.292c0.079-0.042,0.157-0.084,0.232-0.121
								c0.022-0.011,0.044-0.021,0.066-0.032c0.092-0.044,0.183-0.087,0.269-0.124c0.61-0.262,1.188-0.442,1.712-0.565
								c0.262-0.062,0.511-0.109,0.743-0.146c0.232-0.036,0.448-0.061,0.645-0.078c0.098-0.008,0.192-0.015,0.281-0.02
								c0.089-0.005,0.172-0.008,0.25-0.01c0.156-0.004,0.29-0.002,0.4,0.002C245.525,274.38,245.646,274.395,245.646,274.395
								L245.646,274.395z"/>
						</g>
						<g id="XMLID_795_">
							<path id="XMLID_817_" style="fill:#EBEBEB;" d="M239.143,288.874c0.036-0.277,0.236-0.549,0.6-0.764
								c0.816-0.482,2.146-0.496,2.971-0.031c0.375,0.211,0.581,0.485,0.618,0.766c0.213,1.633,0.415,3.418,0.609,5.299
								c-0.036-0.365-0.298-0.723-0.784-0.997c-1.042-0.587-2.722-0.57-3.752,0.039c-0.492,0.291-0.747,0.665-0.765,1.04
								C238.82,292.149,238.994,290.206,239.143,288.874z"/>
							<path id="XMLID_798_" style="fill:#E0E0E0;" d="M241.466,292.721c-0.741-0.023-1.498,0.132-2.061,0.465
								c-0.492,0.291-0.747,0.665-0.765,1.04c0.179-2.077,0.353-4.02,0.502-5.352c0.036-0.277,0.236-0.549,0.6-0.764
								c0.41-0.242,0.949-0.366,1.489-0.371l0.045,0.032L241.466,292.721L241.466,292.721z"/>
						</g>
					</g>
				</g>
				<g id="Brush_1_" style="clip-path:url(#XMLID_00000034086292580918116730000018314695644570103978_);">
					<g id="XMLID_683_">
						<path id="XMLID_691_" style="fill:#455A64;" d="M249.49,328.139l-2.76,22.375c-0.054,0.435,0.18,0.905,0.714,1.307
							c1.067,0.805,2.93,1.035,4.16,0.513c0.615-0.261,0.956-0.66,1.01-1.094l2.76-22.376L249.49,328.139z"/>
						<polygon id="XMLID_690_" style="fill:#37474F;" points="254.663,334.623 248.36,337.294 249.49,328.139 255.373,328.865 
													"/>
					</g>
					<g id="XMLID_260_">
						<g id="XMLID_536_">
							<g id="XMLID_656_">
								<path id="XMLID_674_" style="fill:#37474F;" d="M260.542,311.284l-0.553,4.554l4.22-1.788l-1.137,9.366
									c-0.343,2.823-2.743,6.01-5.361,7.119l-7.419,3.143c-1.226,0.52-2.304,0.486-3.039,0.014
									c-0.08-0.051-3.24-2.401-3.899-2.957c-0.677-0.572-1.01-1.583-0.847-2.925l1.143-9.367L260.542,311.284z"/>
								<path id="XMLID_659_" style="fill:#455A64;" d="M250.292,333.677l7.419-3.143c2.618-1.109,5.018-4.296,5.361-7.119
									l1.137-9.366l-16.891,7.158l-1.143,9.367C245.831,333.397,247.674,334.786,250.292,333.677z"/>
								<polygon id="XMLID_658_" style="fill:#F0F0F0;" points="247.318,321.208 264.209,314.05 265.894,300.389 248.997,307.549 
																	"/>
								<polygon id="XMLID_657_" style="fill:#EBEBEB;" points="247.318,321.208 248.997,307.549 245.336,304.787 243.652,318.442 
																	"/>
							</g>
							<polygon id="XMLID_646_" style="fill:#27DEBF;" points="246.822,325.272 263.716,318.112 263.49,319.975 246.583,327.23 
															"/>
							<polygon id="XMLID_626_" style="fill:#27DEBF;" points="246.822,325.272 243.158,322.507 242.919,324.466 246.583,327.23 
															"/>
							<polygon id="XMLID_625_" style="opacity:0.1;" points="246.822,325.272 243.158,322.507 242.919,324.466 246.583,327.23 
															"/>
						</g>
						<path id="XMLID_525_" style="fill:#27DEBF;" d="M244.821,308.957c0,0,0.927,3.423,3.521,3.916l0.654-5.323l-3.661-2.763
							L244.821,308.957z"/>
						<path id="XMLID_524_" style="opacity:0.1;" d="M244.821,308.957c0,0,0.927,3.423,3.521,3.916l0.654-5.323l-3.661-2.763
							L244.821,308.957z"/>
						<path id="XMLID_480_" style="fill:#27DEBF;" d="M248.342,312.873c0,0,2.66,1.611,5.446,0.027
							c2.052-1.167,3.294-5.988,6.921-5.639c2.553,0.245,3.95,3.136,3.95,3.136l1.234-10.008l-16.897,7.161L248.342,312.873z"/>
						<polygon id="XMLID_430_" style="fill:#27DEBF;" points="265.894,300.389 262.23,297.624 245.336,304.787 248.997,307.549 
													"/>
						<polygon id="XMLID_320_" style="opacity:0.7;fill:#FFFFFF;" points="265.894,300.389 262.23,297.624 245.336,304.787 
							248.997,307.549 						"/>
					</g>
				</g>
			</g>
		</g>
	</g>
</g>
</svg>
